<svg class="diagram-root" style="background: #f5f6f6" xmlns="http://www.w3.org/2000/svg" xmlns:xlink="http://www.w3.org/1999/xlink"><style>.diagram-root { font-family: "Helvetica Neue", sans-serif; font-size: 12px; } .t { overflow: visible; } .t-bg { y: 40; fill: #fff;   } .th { fill: #005aa0;   } .tht { fill: #fff; font-size: 14px;  } .tf { fill: #323c46; overflow: visible; } .tf.pk { fill: #005aa0; font-weight: bold; } .tf.fk { font-weight: bold; } .ty { fill: #adb1b5; font-weight: normal; text-anchor: end; } .r { fill: transparent; stroke: #c3c3c3; stroke-width: 1; } .l { stroke: 1; } .i { fill: #c2c7ce; stroke: #c2c7ce; } .i.ix { fill: #afb3b6; stroke: #000; } .fa { fill: transparent; overflow: visible; } .fa .bg.hover { fill: #f7f7f7; } .c { cy: 12; r: 4; stroke: #d2d2dc; fill: #d2d2dc; } .hr { fill: transparent; stroke: #323c46; stroke-opacity: 0.035; stroke-width: 13; } .dc { stroke: #fa5a3c; fill: #fa5a3c; } .x { stroke: white; stroke-width: 1; } .hl .th { fill: #1b9bff; } .hl .tht {  } .fhl .bg { fill: #e7f4ff; } .fhls .bg {  } .r.hl { stroke: #1b9bff; } .dim { opacity: 0.25; }</style><g class="drawing-wrapper" transform="translate(260.22555555555556, 151.71555555555554) scale(1,1)"><g class="rs"><path d="M 192.7 87 m -1, 0 a 1,1 0 1,0 2,0 a 1,1 0 1,0 -2,0 M 192.7 87 m -0.5, 0 a 0.5,0.5 0 1,0 1,0 a 0.5,0.5 0 1,0 -1,0  M192.7 87 L192.7 87 204.7 87 M198.7 93 L198.7 93 198.7 81 M204.7 87 Q 225.66 87, 246.61 42.6 T 288.5222222222223 -1.7933333333330097 M 300.5222222222223 -1.7933333333330097 m -1, 0 a 1,1 0 1,0 2,0 a 1,1 0 1,0 -2,0 M 300.5222222222223 -1.7933333333330097 m -0.5, 0 a 0.5,0.5 0 1,0 1,0 a 0.5,0.5 0 1,0 -1,0  M300.5222222222223 -1.7933333333330097 L300.5222222222223 -1.7933333333330097 288.5222222222223 -1.7933333333330097 M 300.5222222222223 4.20666666666699 m -1, 0 a 1,1 0 1,0 2,0 a 1,1 0 1,0 -2,0 M 300.5222222222223 4.20666666666699 m -0.5, 0 a 0.5,0.5 0 1,0 1,0 a 0.5,0.5 0 1,0 -1,0  M300.5222222222223 4.20666666666699 L300.5222222222223 4.20666666666699 293.5222222222223 -1.7933333333330097 300.5222222222223 -7.79333333333301 M 300.5222222222223 -7.79333333333301 m -1, 0 a 1,1 0 1,0 2,0 a 1,1 0 1,0 -2,0 M 300.5222222222223 -7.79333333333301 m -0.5, 0 a 0.5,0.5 0 1,0 1,0 a 0.5,0.5 0 1,0 -1,0 " id="h288676815" class="r"></path><path d="M 30 112 m -1, 0 a 1,1 0 1,0 2,0 a 1,1 0 1,0 -2,0 M 30 112 m -0.5, 0 a 0.5,0.5 0 1,0 1,0 a 0.5,0.5 0 1,0 -1,0  M30 112 L30 112 18 112 M 30 118 m -1, 0 a 1,1 0 1,0 2,0 a 1,1 0 1,0 -2,0 M 30 118 m -0.5, 0 a 0.5,0.5 0 1,0 1,0 a 0.5,0.5 0 1,0 -1,0  M30 118 L30 118 23 112 30 106 M 30 106 m -1, 0 a 1,1 0 1,0 2,0 a 1,1 0 1,0 -2,0 M 30 106 m -0.5, 0 a 0.5,0.5 0 1,0 1,0 a 0.5,0.5 0 1,0 -1,0  M18 112 Q -3.17 112, -24.34 152.43 T -66.69 192.86 M -78.69 192.86 m -1, 0 a 1,1 0 1,0 2,0 a 1,1 0 1,0 -2,0 M -78.69 192.86 m -0.5, 0 a 0.5,0.5 0 1,0 1,0 a 0.5,0.5 0 1,0 -1,0  M-78.69 192.86 L-78.69 192.86 -66.69 192.86 M-72.69 198.86 L-72.69 198.86 -72.69 186.86" id="h1485474344" class="r"></path><path d="M 447.69 -26.79333333333301 m -1, 0 a 1,1 0 1,0 2,0 a 1,1 0 1,0 -2,0 M 447.69 -26.79333333333301 m -0.5, 0 a 0.5,0.5 0 1,0 1,0 a 0.5,0.5 0 1,0 -1,0  M447.69 -26.79333333333301 L447.69 -26.79333333333301 459.69 -26.79333333333301 M 447.69 -20.79333333333301 m -1, 0 a 1,1 0 1,0 2,0 a 1,1 0 1,0 -2,0 M 447.69 -20.79333333333301 m -0.5, 0 a 0.5,0.5 0 1,0 1,0 a 0.5,0.5 0 1,0 -1,0  M447.69 -20.79333333333301 L447.69 -20.79333333333301 454.69 -26.79333333333301 447.69 -32.79333333333301 M 447.69 -32.79333333333301 m -1, 0 a 1,1 0 1,0 2,0 a 1,1 0 1,0 -2,0 M 447.69 -32.79333333333301 m -0.5, 0 a 0.5,0.5 0 1,0 1,0 a 0.5,0.5 0 1,0 -1,0  M459.69 -26.79333333333301 Q 479.88 -26.79333333333301, 500.07 46.66 T 540.4555555555556 120.11888888888892 M 552.4555555555556 120.11888888888892 m -1, 0 a 1,1 0 1,0 2,0 a 1,1 0 1,0 -2,0 M 552.4555555555556 120.11888888888892 m -0.5, 0 a 0.5,0.5 0 1,0 1,0 a 0.5,0.5 0 1,0 -1,0  M552.4555555555556 120.11888888888892 L552.4555555555556 120.11888888888892 540.4555555555556 120.11888888888892 M546.4555555555556 126.11888888888892 L546.4555555555556 126.11888888888892 546.4555555555556 114.11888888888892" id="h1397587031" class="r"></path><path d="M 297.62444444444424 222.24888888888898 m -1, 0 a 1,1 0 1,0 2,0 a 1,1 0 1,0 -2,0 M 297.62444444444424 222.24888888888898 m -0.5, 0 a 0.5,0.5 0 1,0 1,0 a 0.5,0.5 0 1,0 -1,0  M297.62444444444424 222.24888888888898 L297.62444444444424 222.24888888888898 285.62444444444424 222.24888888888898 M 297.62444444444424 228.24888888888898 m -1, 0 a 1,1 0 1,0 2,0 a 1,1 0 1,0 -2,0 M 297.62444444444424 228.24888888888898 m -0.5, 0 a 0.5,0.5 0 1,0 1,0 a 0.5,0.5 0 1,0 -1,0  M297.62444444444424 228.24888888888898 L297.62444444444424 228.24888888888898 290.62444444444424 222.24888888888898 297.62444444444424 216.24888888888898 M 297.62444444444424 216.24888888888898 m -1, 0 a 1,1 0 1,0 2,0 a 1,1 0 1,0 -2,0 M 297.62444444444424 216.24888888888898 m -0.5, 0 a 0.5,0.5 0 1,0 1,0 a 0.5,0.5 0 1,0 -1,0  M285.62444444444424 222.24888888888898 Q 265.39 222.24888888888898, 245.16 154.62 T 204.7 87 M 192.7 87 m -1, 0 a 1,1 0 1,0 2,0 a 1,1 0 1,0 -2,0 M 192.7 87 m -0.5, 0 a 0.5,0.5 0 1,0 1,0 a 0.5,0.5 0 1,0 -1,0  M192.7 87 L192.7 87 204.7 87 M198.7 93 L198.7 93 198.7 81" id="h106845284" class="r"></path><path d="M 441.45 247.24888888888898 m -1, 0 a 1,1 0 1,0 2,0 a 1,1 0 1,0 -2,0 M 441.45 247.24888888888898 m -0.5, 0 a 0.5,0.5 0 1,0 1,0 a 0.5,0.5 0 1,0 -1,0  M441.45 247.24888888888898 L441.45 247.24888888888898 453.45 247.24888888888898 M 441.45 253.24888888888898 m -1, 0 a 1,1 0 1,0 2,0 a 1,1 0 1,0 -2,0 M 441.45 253.24888888888898 m -0.5, 0 a 0.5,0.5 0 1,0 1,0 a 0.5,0.5 0 1,0 -1,0  M441.45 253.24888888888898 L441.45 253.24888888888898 448.45 247.24888888888898 441.45 241.24888888888898 M 441.45 241.24888888888898 m -1, 0 a 1,1 0 1,0 2,0 a 1,1 0 1,0 -2,0 M 441.45 241.24888888888898 m -0.5, 0 a 0.5,0.5 0 1,0 1,0 a 0.5,0.5 0 1,0 -1,0  M453.45 247.24888888888898 Q 475.2 247.24888888888898, 496.95 183.68 T 540.4555555555556 120.11888888888892 M 552.4555555555556 120.11888888888892 m -1, 0 a 1,1 0 1,0 2,0 a 1,1 0 1,0 -2,0 M 552.4555555555556 120.11888888888892 m -0.5, 0 a 0.5,0.5 0 1,0 1,0 a 0.5,0.5 0 1,0 -1,0  M552.4555555555556 120.11888888888892 L552.4555555555556 120.11888888888892 540.4555555555556 120.11888888888892 M546.4555555555556 126.11888888888892 L546.4555555555556 126.11888888888892 546.4555555555556 114.11888888888892" id="h232669896" class="r"></path><path d="M -95.53 -64.71555555555554 m -1, 0 a 1,1 0 1,0 2,0 a 1,1 0 1,0 -2,0 M -95.53 -64.71555555555554 m -0.5, 0 a 0.5,0.5 0 1,0 1,0 a 0.5,0.5 0 1,0 -1,0  M-95.53 -64.71555555555554 L-95.53 -64.71555555555554 -83.53 -64.71555555555554 M -95.53 -58.71555555555554 m -1, 0 a 1,1 0 1,0 2,0 a 1,1 0 1,0 -2,0 M -95.53 -58.71555555555554 m -0.5, 0 a 0.5,0.5 0 1,0 1,0 a 0.5,0.5 0 1,0 -1,0  M-95.53 -58.71555555555554 L-95.53 -58.71555555555554 -88.53 -64.71555555555554 -95.53 -70.71555555555554 M -95.53 -70.71555555555554 m -1, 0 a 1,1 0 1,0 2,0 a 1,1 0 1,0 -2,0 M -95.53 -70.71555555555554 m -0.5, 0 a 0.5,0.5 0 1,0 1,0 a 0.5,0.5 0 1,0 -1,0  M-83.53 -64.71555555555554 Q -58.14 -64.71555555555554, -32.76 11.14 T 18 87 M 30 87 m -1, 0 a 1,1 0 1,0 2,0 a 1,1 0 1,0 -2,0 M 30 87 m -0.5, 0 a 0.5,0.5 0 1,0 1,0 a 0.5,0.5 0 1,0 -1,0  M30 87 L30 87 18 87 M24 93 L24 93 24 81" id="h2967012690" class="r"></path></g><g class="hrs"></g><g class="ts"><svg width="162.7" height="225" x="30" y="30" id="h3299212598" class="t"><rect height="40" width="162.7" class="th"></rect><text x="13" y="25" class="tht">Employees</text><rect height="185" width="162.7" class="t-bg" y="40"></rect><text x="13" y="61" class="tf pk">emp_no<tspan x="149.7" class="ty">INTEGER</tspan></text><path d="M7,14A2,2 0 0,1 5,12A2,2 0 0,1 7,10A2,2 0 0,1 9,12A2,2 0 0,1 7,14M12.65,10C11.83,7.67 9.61,6 7, 6A6, 6 0 0, 0 1, 12A6, 6 0 0, 0 7, 18C9.61, 18 11.83, 16.33 12.65, 14H17V18H21V14H23V10H12.65Z" class="i pk" transform="translate(76.36210937499999, 48) scale(0.65)"></path><text x="13" y="86" class="tf fk">emp_title<tspan x="149.7" class="ty">VARCHART</tspan></text><text x="13" y="111" class="tf">birth_date<tspan x="149.7" class="ty">DATE</tspan></text><text x="13" y="136" class="tf">first_name<tspan x="149.7" class="ty">VARCHAR</tspan></text><text x="13" y="161" class="tf">last_name<tspan x="149.7" class="ty">VARCHAR</tspan></text><text x="13" y="186" class="tf">sex<tspan x="149.7" class="ty">CHAR</tspan></text><text x="13" y="211" class="tf">hire_date<tspan x="149.7" class="ty">DATE</tspan></text></svg><svg width="158.48" height="100" x="-237.17" y="135.86" id="h311790747" class="t"><rect height="40" width="158.48" class="th"></rect><text x="13" y="25" class="tht">titles</text><rect height="60" width="158.48" class="t-bg" y="40"></rect><text x="13" y="61" class="tf pk">title_id<tspan x="145.48" class="ty">VARCHAR</tspan></text><path d="M7,14A2,2 0 0,1 5,12A2,2 0 0,1 7,10A2,2 0 0,1 9,12A2,2 0 0,1 7,14M12.65,10C11.83,7.67 9.61,6 7, 6A6, 6 0 0, 0 1, 12A6, 6 0 0, 0 7, 18C9.61, 18 11.83, 16.33 12.65, 14H17V18H21V14H23V10H12.65Z" class="i pk" transform="translate(67.68898437499999, 48) scale(0.65)"></path><text x="13" y="86" class="tf">title<tspan x="145.48" class="ty">VARCHAR</tspan></text></svg><svg width="167.17" height="100" x="552.4555555555556" y="63.11888888888892" id="h475896179" class="t"><rect height="40" width="167.17" class="th"></rect><text x="13" y="25" class="tht">departments</text><rect height="60" width="167.17" class="t-bg" y="40"></rect><text x="13" y="61" class="tf pk">dept_no<tspan x="154.17" class="ty">VARCHAR</tspan></text><path d="M7,14A2,2 0 0,1 5,12A2,2 0 0,1 7,10A2,2 0 0,1 9,12A2,2 0 0,1 7,14M12.65,10C11.83,7.67 9.61,6 7, 6A6, 6 0 0, 0 1, 12A6, 6 0 0, 0 7, 18C9.61, 18 11.83, 16.33 12.65, 14H17V18H21V14H23V10H12.65Z" class="i pk" transform="translate(76.37898437499999, 48) scale(0.65)"></path><text x="13" y="86" class="tf">dept_name<tspan x="154.17" class="ty">VARCHAR</tspan></text></svg><svg width="143.83" height="100" x="297.62444444444424" y="165.24888888888898" id="h1090417462" class="t"><rect height="40" width="143.83" class="th"></rect><text x="13" y="25" class="tht">dept_emp</text><rect height="60" width="143.83" class="t-bg" y="40"></rect><text x="13" y="61" class="tf fk">emp_no<tspan x="130.83" class="ty">INTEGER</tspan></text><text x="13" y="86" class="tf fk">dep_no<tspan x="130.83" class="ty">VARCHAR</tspan></text></svg><svg width="147.17" height="100" x="300.5222222222223" y="-83.79333333333301" id="h1676682957" class="t"><rect height="40" width="147.17" class="th"></rect><text x="13" y="25" class="tht">dept_manager</text><rect height="60" width="147.17" class="t-bg" y="40"></rect><text x="13" y="61" class="tf fk">dept_no<tspan x="134.17" class="ty">VARCHAR</tspan></text><text x="13" y="86" class="tf fk">emp_no<tspan x="134.17" class="ty">INTEGER</tspan></text></svg><svg width="142.7" height="100" x="-238.22555555555556" y="-121.71555555555554" id="h2472833127" class="t"><rect height="40" width="142.7" class="th"></rect><text x="13" y="25" class="tht">salaries</text><rect height="60" width="142.7" class="t-bg" y="40"></rect><text x="13" y="61" class="tf fk">emp_no<tspan x="129.7" class="ty">INTEGER</tspan></text><text x="13" y="86" class="tf">salary<tspan x="129.7" class="ty">INTEGER</tspan></text></svg></g></g><text class="qdbd-link" x="10" y="20">www.quickdatabasediagrams.com</text></svg>